<?xml version="1.0" encoding="UTF-8"?> <svg xmlns="http://www.w3.org/2000/svg" width="124" height="37"><path fill="#053940" d="M87.65 15.716a9.015 9.015 0 017.12 3.592l2.087-1.705a11.15 11.15 0 00-9.214-4.488c-6.475 0-10.882 4.287-10.863 11.69 0 6.024 3.24 11.546 10.932 11.52a11.182 11.182 0 009.101-4.65l-2.106-1.661a9.207 9.207 0 01-7.058 3.704c-5.303 0-7.948-3.453-7.96-8.926 0-5.572 2.576-9.057 7.904-9.076zM36.463 28.334l4.137-8.832 4.218 8.832zM40.6 13.096L30.02 36.138h2.901l2.288-5.203h10.876l2.338 5.215h2.92zm13.414 2.745h7.365v20.31l2.783-.007V15.841h7.353v-2.613H54.014zm66.486-2.607v10.16h-12.379v-10.16h-2.79v22.91h2.784v-10.13H120.5v10.13h2.783v-22.91H120.5zM18.335 2.528c2.044 0 3.172 1.285 3.172 3.623s-1.128 3.623-3.172 3.623c-2.043 0-3.165-1.285-3.165-3.623s1.122-3.623 3.165-3.623zm0 9.64c3.423 0 5.81-2.507 5.81-6.024.007-2.883-1.817-6.017-5.81-6.017-3.993 0-5.81 3.134-5.81 6.024 0 3.604 2.338 6.023 5.81 6.023zm-17.275.909v23.124h2.79V20.279l8.16 8.312 1.787-1.843zm4.476-.909a5.847 5.847 0 004.738-2.363l.07-.1-1.95-1.536-.075.113a3.724 3.724 0 01-2.783 1.467c-1.969 0-3.053-1.254-3.053-3.598.025-1.636.545-3.598 3.053-3.598a3.544 3.544 0 012.739 1.46l.075.12 1.943-1.574-.069-.094A5.703 5.703 0 005.536.127C2.044.127-.106 2.434-.106 6.151c0 4.438 2.902 6.024 5.642 6.024zm7.528 11.509l1.817 1.95 5.222-5.398v15.972h2.764V13.077z"></path></svg> 