<svg xmlns="http://www.w3.org/2000/svg" xmlns:xlink="http://www.w3.org/1999/xlink" width="154" height="154" viewBox="0 0 154 154">
    <defs>
        <path id="a" d="M3.637 37.724L.44 34.403A1.58 1.58 0 0 1 0 33.306V14.494c0-.412.16-.808.446-1.102L13.004.476c.291-.3.69-.468 1.104-.468H32.65c.412 0 .808.166 1.099.462L46.46 13.39c.29.295.452.694.452 1.11v18.8c0 .414-.16.81-.447 1.104l-3.233 3.32H3.637z"/>
        <path id="c" d="M10.362 44.711L.44 34.403A1.58 1.58 0 0 1 0 33.306V14.494c0-.412.16-.808.446-1.102L13.004.476c.291-.3.69-.468 1.104-.468H32.65c.412 0 .808.166 1.099.462L46.46 13.39c.29.295.452.694.452 1.11v18.8c0 .414-.16.81-.447 1.104L36.427 44.711H10.362z"/>
        <path id="e" d="M14.108.008a1.54 1.54 0 0 0-1.104.468L.446 13.392c-.286.294-.446.69-.446 1.102v18.812c0 .41.158.804.44 1.097l12.563 13.052a1.54 1.54 0 0 0 1.11.474h18.532c.415 0 .813-.168 1.104-.467l12.716-13.058a1.58 1.58 0 0 0 .447-1.103V14.5c0-.416-.162-.815-.452-1.11L33.748.47a1.541 1.541 0 0 0-1.099-.462H14.11z"/>
        <path id="g" d="M14.108.008a1.54 1.54 0 0 0-1.104.468L.446 13.392c-.286.294-.446.69-.446 1.102v18.812c0 .41.158.804.44 1.097l12.563 13.052a1.54 1.54 0 0 0 1.11.474h18.532c.415 0 .813-.168 1.104-.467l12.716-13.058a1.58 1.58 0 0 0 .447-1.103V14.5c0-.416-.162-.815-.452-1.11L33.748.47a1.541 1.541 0 0 0-1.099-.462H14.11z"/>
        <path id="i" d="M14.108.008a1.54 1.54 0 0 0-1.104.468L.446 13.392c-.286.294-.446.69-.446 1.102v18.812c0 .41.158.804.44 1.097l12.563 13.052a1.54 1.54 0 0 0 1.11.474h18.532c.415 0 .813-.168 1.104-.467l12.716-13.058a1.58 1.58 0 0 0 .447-1.103V14.5c0-.416-.162-.815-.452-1.11L33.748.47a1.541 1.541 0 0 0-1.099-.462H14.11z"/>
        <path id="k" d="M14.108.008a1.54 1.54 0 0 0-1.104.468L.446 13.392c-.286.294-.446.69-.446 1.102v18.812c0 .41.158.804.44 1.097l12.563 13.052a1.54 1.54 0 0 0 1.11.474h18.532c.415 0 .813-.168 1.104-.467l12.716-13.058a1.58 1.58 0 0 0 .447-1.103V14.5c0-.416-.162-.815-.452-1.11L33.748.47a1.541 1.541 0 0 0-1.099-.462H14.11z"/>
        <path id="m" d="M14.108.008a1.54 1.54 0 0 0-1.104.468L.446 13.392c-.286.294-.446.69-.446 1.102v18.812c0 .41.158.804.44 1.097l12.563 13.052a1.54 1.54 0 0 0 1.11.474h18.532c.415 0 .813-.168 1.104-.467l12.716-13.058a1.58 1.58 0 0 0 .447-1.103V14.5c0-.416-.162-.815-.452-1.11L33.748.47a1.541 1.541 0 0 0-1.099-.462H14.11z"/>
        <path id="o" d="M14.108.008a1.54 1.54 0 0 0-1.104.468L.446 13.392c-.286.294-.446.69-.446 1.102v18.812c0 .41.158.804.44 1.097l12.563 13.052a1.54 1.54 0 0 0 1.11.474h18.532c.415 0 .813-.168 1.104-.467l12.716-13.058a1.58 1.58 0 0 0 .447-1.103V14.5c0-.416-.162-.815-.452-1.11L33.748.47a1.541 1.541 0 0 0-1.099-.462H14.11z"/>
        <path id="q" d="M14.108.008a1.54 1.54 0 0 0-1.104.468L.446 13.392c-.286.294-.446.69-.446 1.102v18.812c0 .41.158.804.44 1.097l12.563 13.052a1.54 1.54 0 0 0 1.11.474h18.532c.415 0 .813-.168 1.104-.467l12.716-13.058a1.58 1.58 0 0 0 .447-1.103V14.5c0-.416-.162-.815-.452-1.11L33.748.47a1.541 1.541 0 0 0-1.099-.462H14.11z"/>
        <path id="s" d="M8.448 5.161l-8.002 8.23C.16 13.687 0 14.083 0 14.495v18.812c0 .41.158.804.44 1.097l12.563 13.052a1.54 1.54 0 0 0 1.11.474h18.532c.415 0 .813-.168 1.104-.467l12.716-13.058a1.58 1.58 0 0 0 .447-1.103V14.5c0-.416-.162-.815-.452-1.11l-8.097-8.229H8.448z"/>
        <path id="u" d="M1.655 12.148l-1.21 1.244c-.285.294-.445.69-.445 1.102v18.812c0 .41.158.804.44 1.097l12.563 13.052a1.54 1.54 0 0 0 1.11.474h18.532c.415 0 .813-.168 1.104-.467l12.716-13.058a1.58 1.58 0 0 0 .447-1.103V14.5c0-.416-.162-.815-.452-1.11l-1.222-1.242H1.655z"/>
        <path id="w" d="M0 19.136v14.17c0 .41.158.804.44 1.097l12.563 13.052a1.54 1.54 0 0 0 1.11.474h18.532c.415 0 .813-.168 1.104-.467l12.716-13.058a1.58 1.58 0 0 0 .447-1.103V19.136H0z"/>
        <path id="y" d="M0 26.123v7.183c0 .41.158.804.44 1.097l12.563 13.052a1.54 1.54 0 0 0 1.11.474h18.532c.415 0 .813-.168 1.104-.467l12.716-13.058a1.58 1.58 0 0 0 .447-1.103v-7.178H0z"/>
        <path id="A" d="M0 33.11v.196c0 .41.158.804.44 1.097l12.563 13.052a1.54 1.54 0 0 0 1.11.474h18.532c.415 0 .813-.168 1.104-.467l12.716-13.058a1.58 1.58 0 0 0 .447-1.103v-.191H0z"/>
        <path id="C" d="M5.92 40.097l7.083 7.358a1.54 1.54 0 0 0 1.11.474h18.532c.415 0 .813-.168 1.104-.467l7.172-7.365h-35z"/>
        <path id="E" d="M12.646 47.084l.357.37a1.54 1.54 0 0 0 1.11.475h18.532c.415 0 .813-.168 1.104-.467l.367-.378h-21.47z"/>
    </defs>
    <g fill="none" fill-rule="evenodd">
        <path fill="#F3F3F3" stroke="#C0C0C0" d="M.5.5h152.718v153H.5z"/>
        <path fill="#777" d="M63.317 88.645h26.067c.419 0 .82-.167 1.117-.465l8.294-8.328a1.574 1.574 0 0 1 2.233 0l15.923 15.99c.296.297.463.7.463 1.12v22.453c0 .875-.707 1.585-1.58 1.585H36.867c-.872 0-1.56-.469-1.56-1.344V96.802c0-.42.148-.663.444-.96l15.923-15.99a1.574 1.574 0 0 1 2.233 0L62.2 88.18c.296.298.698.465 1.117.465" opacity=".77"/>
        <g transform="translate(51.728 31)">
            <mask id="b" fill="#fff">
                <use xlink:href="#a"/>
            </mask>
            <path fill="#777" d="M-21.112 37.724l-1.24-1.255 92.97-94.192 1.24 1.256z" mask="url(#b)"/>
            <mask id="d" fill="#fff">
                <use xlink:href="#c"/>
            </mask>
            <path fill="#777" d="M-21.112 44.711l-1.24-1.255 92.97-94.192 1.24 1.256z" mask="url(#d)"/>
            <mask id="f" fill="#fff">
                <use xlink:href="#e"/>
            </mask>
            <path fill="#777" d="M-21.112 51.699l-1.24-1.256 92.97-94.192 1.24 1.256z" mask="url(#f)"/>
            <mask id="h" fill="#fff">
                <use xlink:href="#g"/>
            </mask>
            <path fill="#777" d="M-21.112 58.686l-1.24-1.256 92.97-94.191 1.24 1.255z" mask="url(#h)"/>
            <mask id="j" fill="#fff">
                <use xlink:href="#i"/>
            </mask>
            <path fill="#777" d="M-21.112 65.673l-1.24-1.256 92.97-94.191 1.24 1.255z" mask="url(#j)"/>
            <mask id="l" fill="#fff">
                <use xlink:href="#k"/>
            </mask>
            <path fill="#777" d="M-21.112 72.66l-1.24-1.256 92.97-94.191 1.24 1.256z" mask="url(#l)"/>
            <mask id="n" fill="#fff">
                <use xlink:href="#m"/>
            </mask>
            <path fill="#777" d="M-21.112 79.647l-1.24-1.256L70.619-15.8l1.24 1.256z" mask="url(#n)"/>
            <mask id="p" fill="#fff">
                <use xlink:href="#o"/>
            </mask>
            <path fill="#777" d="M-21.112 86.634l-1.24-1.256 92.97-94.191 1.24 1.256z" mask="url(#p)"/>
            <mask id="r" fill="#fff">
                <use xlink:href="#q"/>
            </mask>
            <path fill="#777" d="M-21.112 93.621l-1.24-1.255 92.97-94.192 1.24 1.256z" mask="url(#r)"/>
            <mask id="t" fill="#fff">
                <use xlink:href="#s"/>
            </mask>
            <path fill="#777" d="M-21.112 100.608l-1.24-1.255L70.619 5.16l1.24 1.256z" mask="url(#t)"/>
            <mask id="v" fill="#fff">
                <use xlink:href="#u"/>
            </mask>
            <path fill="#777" d="M-21.112 107.596l-1.24-1.256 92.97-94.192 1.24 1.256z" mask="url(#v)"/>
            <mask id="x" fill="#fff">
                <use xlink:href="#w"/>
            </mask>
            <path fill="#777" d="M-21.112 114.583l-1.24-1.256 92.97-94.191 1.24 1.255z" mask="url(#x)"/>
            <mask id="z" fill="#fff">
                <use xlink:href="#y"/>
            </mask>
            <path fill="#777" d="M-21.112 121.57l-1.24-1.256 92.97-94.191 1.24 1.255z" mask="url(#z)"/>
            <mask id="B" fill="#fff">
                <use xlink:href="#A"/>
            </mask>
            <path fill="#777" d="M-21.112 128.557l-1.24-1.256 92.97-94.191 1.24 1.255z" mask="url(#B)"/>
            <mask id="D" fill="#fff">
                <use xlink:href="#C"/>
            </mask>
            <path fill="#777" d="M-21.112 135.544l-1.24-1.256 92.97-94.191 1.24 1.255z" mask="url(#D)"/>
            <mask id="F" fill="#fff">
                <use xlink:href="#E"/>
            </mask>
            <path fill="#777" d="M-21.112 142.531l-1.24-1.256 92.97-94.191 1.24 1.256zM-21.112 149.518l-1.24-1.255 92.97-94.192 1.24 1.256zM-21.112 156.505l-1.24-1.255 92.97-94.192 1.24 1.256zM-21.112 163.492l-1.24-1.255 92.97-94.192 1.24 1.256zM-21.112 170.48l-1.24-1.256 92.97-94.192 1.24 1.256z" mask="url(#F)"/>
        </g>
    </g>
</svg>
