<svg xmlns="http://www.w3.org/2000/svg" width="15" height="14" viewBox="0 0 15 14">
    <path fill="#0095B3" fill-rule="nonzero" d="M11.538 12.25a.567.567 0 0 0-.17-.41.546.546 0 0 0-.406-.173.558.558 0 0 0-.407.172.561.561 0 0 0-.17.411c0 .16.057.296.17.41.114.115.25.173.407.173a.546.546 0 0 0 .406-.172.567.567 0 0 0 .17-.411zm2.308 0a.567.567 0 0 0-.17-.41.546.546 0 0 0-.407-.173.558.558 0 0 0-.406.172.561.561 0 0 0-.17.411c0 .16.056.296.17.41.114.115.25.173.406.173a.546.546 0 0 0 .406-.172.567.567 0 0 0 .171-.411zM15 10.208v2.917c0 .243-.084.45-.253.62a.83.83 0 0 1-.612.255H.865a.83.83 0 0 1-.612-.255.848.848 0 0 1-.253-.62v-2.917c0-.242.084-.449.253-.62a.83.83 0 0 1 .612-.255h4.192l1.218 1.24c.348.34.757.51 1.225.51.468 0 .877-.17 1.225-.51l1.226-1.24h4.182a.83.83 0 0 1 .613.256c.169.17.253.377.253.62H15zm-2.93-5.185c.103.248.06.461-.125.638L7.906 9.744a.535.535 0 0 1-.406.173.535.535 0 0 1-.406-.173L3.055 5.661c-.186-.177-.228-.39-.125-.638.102-.238.28-.356.532-.356h2.307V.583c0-.158.057-.294.171-.41A.546.546 0 0 1 6.346 0h2.308c.156 0 .291.058.406.173a.558.558 0 0 1 .17.41v4.084h2.308c.253 0 .43.118.532.356z"/>
</svg>
